<?xml version="1.0" encoding="UTF-8"?>
<svg width="23px" height="23px" viewBox="0 0 23 23" version="1.1" xmlns="http://www.w3.org/2000/svg" xmlns:xlink="http://www.w3.org/1999/xlink">
    <!-- Generator: Sketch 52.6 (67491) - http://www.bohemiancoding.com/sketch -->
    <title>github</title>
    <desc>Created with Sketch.</desc>
    <g id="Page-1" stroke="none" stroke-width="1" fill="none" fill-rule="evenodd">
        <g id="iPhone-XS" transform="translate(-159.000000, -640.000000)" fill="#39444F">
            <g id="Group-6" transform="translate(-10.000000, 617.000000)">
                <g id="github" transform="translate(169.000000, 23.000000)">
                    <path d="M11.5,0 C5.14625,0 0,5.27641844 0,11.7908792 C0,17.0083432 3.291875,21.4151843 7.863125,22.9774758 C8.438125,23.080646 8.65375,22.7269196 8.65375,22.4174091 C8.65375,22.1373757 8.639375,21.208844 8.639375,20.2213578 C5.75,20.766686 5.0025,19.4991665 4.7725,18.8359295 C4.643125,18.4969417 4.0825,17.4505012 3.59375,17.1704678 C3.19125,16.9493888 2.61625,16.4040607 3.579375,16.3893221 C4.485,16.3745835 5.131875,17.2441608 5.3475,17.5978872 C6.3825,19.3812577 8.035625,18.8801453 8.696875,18.5706347 C8.7975,17.8042276 9.099375,17.2883766 9.43,16.9936046 C6.87125,16.6988327 4.1975,15.6818693 4.1975,11.171858 C4.1975,9.88959992 4.643125,8.8284208 5.37625,8.00305925 C5.26125,7.70828727 4.85875,6.49972216 5.49125,4.87847627 C5.49125,4.87847627 6.454375,4.56896569 8.65375,6.08704138 C9.57375,5.8217466 10.55125,5.68909921 11.52875,5.68909921 C12.50625,5.68909921 13.48375,5.8217466 14.40375,6.08704138 C16.603125,4.55422709 17.56625,4.87847627 17.56625,4.87847627 C18.19875,6.49972216 17.79625,7.70828727 17.68125,8.00305925 C18.414375,8.8284208 18.86,9.87486133 18.86,11.171858 C18.86,15.6966079 16.171875,16.6988327 13.613125,16.9936046 C14.03,17.3620696 14.389375,18.0695224 14.389375,19.1749173 C14.389375,20.7519474 14.375,22.0194669 14.375,22.4174091 C14.375,22.7269196 14.590625,23.0953846 15.165625,22.9774758 C19.708125,21.4151843 23,16.9936046 23,11.7908792 C23,5.27641844 17.85375,0 11.5,0 Z" id="Path"></path>
                </g>
            </g>
        </g>
    </g>
</svg>