<?xml version="1.0" encoding="UTF-8"?>
<svg width="22px" height="22px" viewBox="0 0 22 22" version="1.1" xmlns="http://www.w3.org/2000/svg" xmlns:xlink="http://www.w3.org/1999/xlink">
    <!-- Generator: Sketch 52.6 (67491) - http://www.bohemiancoding.com/sketch -->
    <title>instagram-2</title>
    <desc>Created with Sketch.</desc>
    <defs>
        <linearGradient x1="6.71416922%" y1="93.4850191%" x2="92.3976055%" y2="7.82891742%" id="linearGradient-1">
            <stop stop-color="#F6DC76" offset="0%"></stop>
            <stop stop-color="#F36B5A" offset="46.4482478%"></stop>
            <stop stop-color="#E140C1" offset="100%"></stop>
        </linearGradient>
    </defs>
    <g id="Page-1" stroke="none" stroke-width="1" fill="none" fill-rule="evenodd">
        <g id="iPhone-XS" transform="translate(-256.000000, -641.000000)">
            <g id="instagram-2" transform="translate(256.000000, 641.000000)">
                <path d="M1.43505342,1.52739346 C-0.288813022,3.31763273 0.0640037585,5.21936215 0.0640037585,10.9967448 C0.0640037585,15.7944764 -0.773250571,20.6040881 3.60862416,21.7363528 C4.97693173,22.0881864 17.1006669,22.0881864 18.4671464,21.7345251 C20.2915565,21.2638905 21.7759463,19.7843614 21.9788616,17.2045526 C22.0071967,16.8444943 22.0071967,5.1553924 21.9779476,4.78802323 C21.7622358,2.04006535 20.0703605,0.456356995 17.8410337,0.135594368 C17.3300892,0.0615722237 17.2277175,0.0396397364 14.6062706,0.0350704682 C5.30781172,0.0396397364 3.26951788,-0.374335961 1.43505342,1.52739346 Z" id="Path" fill="url(#linearGradient-1)"></path>
                <path d="M11.0001987,3.00771171 C7.72341188,3.00771171 4.61177294,2.71645179 3.42324959,5.76431101 C2.93231816,7.02313097 3.00361151,8.6579738 3.00361151,10.998874 C3.00361151,13.0530229 2.93773284,14.9836343 3.42324959,16.2325352 C4.6090656,19.2821979 7.74597307,18.9900362 10.9983938,18.9900362 C14.1362037,18.9900362 17.371478,19.3164637 18.5744405,16.2325352 C19.0662744,14.9610909 18.9940786,13.3505949 18.9940786,10.998874 C18.9940786,7.87707259 19.166446,5.86169823 17.6512367,4.34858942 C16.117076,2.81564247 14.0423492,3.00771171 10.9965889,3.00771171 L11.0001987,3.00771171 Z M10.2836554,4.4477801 C17.1187927,4.4369593 17.9887521,3.67769969 17.50865,14.2252764 C17.3380874,17.9557479 14.4953778,17.5463609 11.0011012,17.5463609 C4.62982189,17.5463609 4.44662505,17.3642107 4.44662505,10.995267 C4.44662505,4.55238119 4.95199564,4.45138704 10.2836554,4.44597663 L10.2836554,4.4477801 Z M15.2687753,5.77423008 C14.7390387,5.77423008 14.3094737,6.20345522 14.3094737,6.73277278 C14.3094737,7.26209035 14.7390387,7.69131549 15.2687753,7.69131549 C15.798512,7.69131549 16.228077,7.26209035 16.228077,6.73277278 C16.228077,6.20345522 15.798512,5.77423008 15.2687753,5.77423008 Z M11.0001987,6.89508481 C8.73234817,6.89508481 6.89406264,8.73281768 6.89406264,10.998874 C6.89406264,13.2649302 8.73234817,15.1017614 11.0001987,15.1017614 C13.2680493,15.1017614 15.1054323,13.2649302 15.1054323,10.998874 C15.1054323,8.73281768 13.2680493,6.89508481 11.0001987,6.89508481 Z M11.0001987,8.33515321 C14.5242562,8.33515321 14.5287684,13.6625947 11.0001987,13.6625947 C7.47704372,13.6625947 7.47162903,8.33515321 11.0001987,8.33515321 Z" id="Shape" fill="#FFFFFF" fill-rule="nonzero"></path>
            </g>
        </g>
    </g>
</svg>