<?xml version="1.0" encoding="UTF-8"?>
<svg width="23px" height="23px" viewBox="0 0 23 23" version="1.1" xmlns="http://www.w3.org/2000/svg" xmlns:xlink="http://www.w3.org/1999/xlink">
    <!-- Generator: Sketch 52.6 (67491) - http://www.bohemiancoding.com/sketch -->
    <title>linkedin</title>
    <desc>Created with Sketch.</desc>
    <g id="Page-1" stroke="none" stroke-width="1" fill="none" fill-rule="evenodd">
        <g id="iPhone-XS" transform="translate(-111.000000, -640.000000)">
            <g id="Group-6" transform="translate(-10.000000, 617.000000)">
                <g id="linkedin" transform="translate(121.000000, 23.000000)">
                    <rect id="Rectangle" fill="#257FD9" x="0" y="0" width="23" height="23" rx="4"></rect>
                    <path d="M9.15029612,8.65424816 L12.3558904,8.65424816 L12.3558904,10.2653449 C12.8179892,9.33893962 14.0020864,8.50626009 15.7809447,8.50626009 C19.1907107,8.50626009 20,10.3501914 20,13.7336919 L20,20 L16.5478215,20 L16.5478215,14.5042165 C16.5478215,12.5774118 16.0857227,11.4906861 14.9105025,11.4906861 C13.2805811,11.4906861 12.6024746,12.6622583 12.6024746,14.5042165 L12.6024746,20 L9.15029612,20 L9.15029612,8.65424816 Z M3.23227582,19.8520119 L6.68445433,19.8520119 L6.68445433,8.50626009 L3.23227582,8.50626009 L3.23227582,19.8520119 Z M5.08881134,7.17868325 C6.24242999,7.17868325 7.17762269,6.24325315 7.17762269,5.08934163 C7.17762269,3.93543011 6.24242999,3 5.08881134,3 C3.93519269,3 3,3.93543011 3,5.08934163 C3,6.24325315 3.93519269,7.17868325 5.08881134,7.17868325 Z" id="Shape" fill="#FFFFFF" fill-rule="nonzero"></path>
                </g>
            </g>
        </g>
    </g>
</svg>