<?xml version="1.0" encoding="UTF-8"?>
<svg width="18px" height="21px" viewBox="0 0 18 21" version="1.1" xmlns="http://www.w3.org/2000/svg" xmlns:xlink="http://www.w3.org/1999/xlink">
    <!-- Generator: Sketch 52.6 (67491) - http://www.bohemiancoding.com/sketch -->
    <title>tik-tok</title>
    <desc>Created with Sketch.</desc>
    <g id="Page-1" stroke="none" stroke-width="1" fill="none" fill-rule="evenodd">
        <g id="iPhone-XS" transform="translate(-303.000000, -641.000000)">
            <g id="tik-tok" transform="translate(303.000000, 641.000000)">
                <g id="Group" transform="translate(2.000000, 0.000000)" fill="#ED5681">
                    <path d="M3.84081633,10.4094456 C2.18367347,10.4094456 0.844897959,11.8238193 0.869387755,13.5572895 C0.885714286,14.6698152 1.46530612,15.635729 2.31836735,16.1747433 C2.02857143,15.7047228 1.85714286,15.14846 1.84897959,14.549076 C1.8244898,12.8156057 3.16326531,11.401232 4.82040816,11.401232 C5.14693878,11.401232 5.46122449,11.4572895 5.75510204,11.5564682 L5.75510204,8.08521561 C5.44897959,8.03778234 5.13469388,8.01190965 4.82040816,8.01190965 C4.80408163,8.01190965 4.79183673,8.01190965 4.7755102,8.01190965 L4.7755102,10.5646817 C4.48163265,10.4655031 4.16734694,10.4094456 3.84081633,10.4094456 Z" id="Path"></path>
                    <path d="M11.0040816,0 L10.9795918,0 L10.1306122,0 C10.3755102,1.29794661 11.0653061,2.42772074 12.0285714,3.19527721 C11.3959184,2.31129363 11.0122449,1.2073922 11.0040816,0 Z" id="Path"></path>
                    <path d="M16,5.28234086 C15.677551,5.28234086 15.3673469,5.24784394 15.0612245,5.18747433 L15.0612245,7.67556468 C13.9510204,7.67556468 12.8734694,7.44702259 11.8612245,6.9899384 C11.2081633,6.69671458 10.6,6.32156057 10.0408163,5.8687885 L10.0571429,13.5400411 C10.0489796,15.2648871 9.40408163,16.8819302 8.23673469,18.1022587 C7.28571429,19.0940452 6.08163265,19.7279261 4.7755102,19.9305955 C4.46938776,19.9780287 4.15510204,20.0039014 3.84081633,20.0039014 C2.44489796,20.0039014 1.11428571,19.5252567 0.0326530612,18.6412731 C0.155102041,18.7965092 0.285714286,18.9474333 0.428571429,19.0940452 C1.60408163,20.3186858 3.16326531,20.9956879 4.8244898,20.9956879 C5.13877551,20.9956879 5.45306122,20.9698152 5.75918367,20.9223819 C7.06530612,20.7197125 8.26938776,20.0858316 9.22040816,19.0940452 C10.3877551,17.8737166 11.0326531,16.2566735 11.0408163,14.5318275 L10.9795918,6.86057495 C11.5346939,7.31334702 12.1428571,7.69281314 12.8,7.98172485 C13.8163265,8.43449692 14.8938776,8.66735113 16,8.66735113" id="Path"></path>
                </g>
                <path d="M3.12330048,10.995549 C4.42466693,9.73590504 6.15525599,9.03709199 8,9.02373887 L8,8.07566766 C7.65753515,8.02670623 7.3059379,8 6.95434065,8 C5.09133184,8 3.34247799,8.69881306 2.02741295,9.97181009 C0.735178902,11.2225519 -0.0045451824,12.9317507 2.10156524e-05,14.7077151 C2.10156524e-05,16.4970326 0.726046506,18.1750742 2.03654535,19.4436202 C2.24659046,19.6439169 2.46120176,19.8308605 2.68951167,20 C1.65755091,18.8026706 1.09590855,17.3071217 1.09134235,15.731454 C1.09590855,13.9554896 1.83106643,12.2462908 3.12330048,10.995549 Z" id="Path" fill="#82FFFC"></path>
                <path d="M18,6 L18,5.07359307 L17.9919137,5.07359307 C16.8679245,5.07359307 15.8328841,4.67532468 15,4 C15.7237197,5.02164502 16.7830189,5.74891775 18,6 Z" id="Path" fill="#08FFF9"></path>
                <path d="M7.3908046,18.9953629 C7.78787879,19.017389 8.16823406,18.960121 8.51933124,18.8411797 C9.73145246,18.4226826 10.6050157,17.2332698 10.6050157,15.8324059 L10.6091954,10.5901791 L10.6091954,1.01320349 L13,1.01320349 C12.9373041,0.68281105 12.9038662,0.348013374 12.8996865,0 L9.60606061,0 L9.60606061,9.57257039 L9.60188088,14.8147972 C9.60188088,16.2156611 8.72831766,17.4050739 7.51619645,17.823571 C7.16509927,17.9469175 6.78474399,18.0041855 6.3876698,17.9777542 C5.88192268,17.9469175 5.40961338,17.7883292 5,17.5328257 C5.51410658,18.3698199 6.39184953,18.9380949 7.3908046,18.9953629 Z" id="Path" fill="#82FFFC"></path>
                <path d="M7.37501213,20.9270682 C8.72421694,20.7142659 9.96801512,20.0486928 10.9504049,19.0073198 C12.1562567,17.7259784 12.8224265,16.0280877 12.8308591,14.2170044 L12.813994,6.16221113 C13.3874061,6.63762051 14.0156295,7.03605885 14.6944482,7.33941531 C15.7442982,7.81482469 16.8573922,8.05932094 18,8.05932094 L18,5.4468332 C16.7309042,5.18422611 15.6262428,4.4235711 14.8715313,3.35503192 C13.8764928,2.54909983 13.1597277,1.36284023 12.9109681,0 L10.4950482,0 L10.4950482,9.83871034 L10.490832,15.2266833 C10.490832,16.6664946 9.60963259,17.8889759 8.38691574,18.3191082 C8.03274947,18.445884 7.64906936,18.5047442 7.24852418,18.477578 C6.23662057,18.4187178 5.35542118,17.8346434 4.83682058,16.9789065 C3.95562119,16.4174706 3.35691156,15.3987363 3.3400465,14.2305875 C3.31474891,12.4104487 4.69768384,10.9253604 6.40948744,10.9253604 C6.74678864,10.9253604 7.07144105,10.9842206 7.37501213,11.0883579 L7.37501213,8.40795449 C5.67164106,8.42153761 4.07367661,9.13238783 2.87204108,10.4137293 C1.67883807,11.6860154 0.99580314,13.4246554 1.00001941,15.2266833 C1.00001941,16.8294921 1.51862,18.3508021 2.47571217,19.5687557 C3.59723866,20.4969359 4.9675248,20.9995115 6.40948744,20.9995115 C6.73413984,21.0040392 7.05879225,20.976873 7.37501213,20.9270682 Z" id="Path" fill="#000000"></path>
            </g>
        </g>
    </g>
</svg>