<?xml version="1.0" encoding="UTF-8"?>
<svg width="29px" height="23px" viewBox="0 0 29 23" version="1.1" xmlns="http://www.w3.org/2000/svg" xmlns:xlink="http://www.w3.org/1999/xlink">
    <!-- Generator: Sketch 52.6 (67491) - http://www.bohemiancoding.com/sketch -->
    <title>twitter copy</title>
    <desc>Created with Sketch.</desc>
    <g id="Page-1" stroke="none" stroke-width="1" fill="none" fill-rule="evenodd">
        <g id="iPhone-XS" transform="translate(-59.000000, -442.000000)" fill="#FFFFFF">
            <g id="Group-4" transform="translate(38.000000, 418.000000)">
                <g id="Group-3-Copy">
                    <g id="twitter-copy" transform="translate(21.000000, 24.000000)">
                        <path d="M9.12028115,23 C20.0644099,23 26.048908,14.1520611 26.048908,6.479735 C26.048908,6.22842327 26.0436627,5.97824545 26.0321114,5.7291987 C27.1938619,4.90961027 28.2036524,3.8868218 29,2.72252923 C27.9339495,3.18496322 26.786699,3.49627189 25.5831866,3.63664399 C26.811639,2.91780418 27.7547276,1.78068193 28.1995924,0.425076455 C27.0500209,1.09014352 25.7769085,1.57352079 24.4214352,1.83445277 C23.3356647,0.705819701 21.7899494,0 20.0783532,0 C16.7926208,0 14.1280741,2.60027131 14.1280741,5.80561085 C14.1280741,6.26125178 14.1802741,6.70444242 14.282356,7.12951792 C9.33722835,6.88669822 4.9523835,4.57622725 2.01813587,1.06297509 C1.50715013,1.92105308 1.21250825,2.91780418 1.21250825,3.98134528 C1.21250825,5.99579172 2.26289777,7.77420962 3.86023301,8.81454436 C2.88408445,8.78511189 1.96709491,8.523612 1.16552631,8.08834739 C1.16465047,8.11270856 1.16465047,8.13645909 1.16465047,8.1624955 C1.16465047,10.9744551 3.21555147,13.3222836 5.93809817,13.8543367 C5.4381334,13.9873506 4.91206767,14.0586678 4.36918291,14.0586678 C3.9863791,14.0586678 3.61343528,14.0219 3.25093243,13.9539561 C4.00841909,16.261031 6.20490006,17.9398295 8.80912678,17.9868101 C6.77272578,19.5444807 4.207361,20.4721797 1.41927431,20.4721797 C0.939608569,20.4721797 0.465744772,20.4455545 0,20.3918046 C2.63322672,22.0389084 5.76003723,23 9.12058867,23" id="path3611"></path>
                    </g>
                </g>
            </g>
        </g>
    </g>
</svg>