<?xml version="1.0" encoding="UTF-8"?>
<svg width="25px" height="19px" viewBox="0 0 25 19" version="1.1" xmlns="http://www.w3.org/2000/svg" xmlns:xlink="http://www.w3.org/1999/xlink">
    <!-- Generator: Sketch 52.6 (67491) - http://www.bohemiancoding.com/sketch -->
    <title>twitter</title>
    <desc>Created with Sketch.</desc>
    <g id="Page-1" stroke="none" stroke-width="1" fill="none" fill-rule="evenodd">
        <g id="iPhone-XS" transform="translate(-61.000000, -642.000000)" fill="#69B9F1">
            <g id="Group-6" transform="translate(-10.000000, 617.000000)">
                <g id="twitter" transform="translate(71.000000, 25.000000)">
                    <path d="M7.86231134,19 C17.2969051,19 22.4559552,11.6908331 22.4559552,5.35282457 C22.4559552,5.14521922 22.4514334,4.93855059 22.4414753,4.73281632 C23.4429844,4.055765 24.3134934,3.21085279 25,2.24904588 C24.080991,2.63105657 23.0919819,2.8882246 22.0544712,3.00418416 C23.1134819,2.41035998 23.9264893,1.47099812 24.3099934,0.351150115 C23.3189836,0.900553341 22.2214729,1.299865 21.0529614,1.51541751 C20.1169523,0.583068449 18.7844392,0 17.3089252,0 C14.4763973,0 12.1793742,2.14805021 12.1793742,4.79593939 C12.1793742,5.17233843 12.2243742,5.53845243 12.3123759,5.88960176 C8.04933479,5.68901157 4.26929612,3.78036164 1.7397723,0.878109859 C1.29926736,1.58695689 1.04526573,2.41035998 1.04526573,3.28893741 C1.04526573,4.95304534 1.95077394,6.42217316 3.32778708,7.28158012 C2.4862797,7.25726635 1.69577147,7.0412447 1.00476406,6.68167827 C1.00400903,6.70180272 1.00400903,6.72142273 1.00400903,6.74293106 C1.00400903,9.06585419 2.77202713,11.0053647 5.11905014,11.4448868 C4.68804604,11.5547679 4.23454109,11.6136821 3.76653699,11.6136821 C3.4365337,11.6136821 3.11503041,11.5833087 2.80252796,11.5271811 C3.4555337,13.4330256 5.34905178,14.8198591 7.59407481,14.8586692 C5.83855671,16.1454406 3.62703534,16.9118006 1.22351234,16.9118006 C0.810007387,16.9118006 0.401504114,16.8898059 0,16.8454038 C2.27002303,18.2060548 4.96554934,19 7.86257644,19" id="path3611"></path>
                </g>
            </g>
        </g>
    </g>
</svg>