<?xml version="1.0" encoding="UTF-8"?>
<svg width="23px" height="16px" viewBox="0 0 23 16" version="1.1" xmlns="http://www.w3.org/2000/svg" xmlns:xlink="http://www.w3.org/1999/xlink">
    <!-- Generator: Sketch 52.6 (67491) - http://www.bohemiancoding.com/sketch -->
    <title>youtube</title>
    <desc>Created with Sketch.</desc>
    <g id="Page-1" stroke="none" stroke-width="1" fill="none" fill-rule="evenodd">
        <g id="iPhone-XS" transform="translate(-208.000000, -644.000000)">
            <g id="Group-6" transform="translate(-10.000000, 617.000000)">
                <g id="youtube" transform="translate(218.000000, 27.000000)">
                    <path d="M22.5262645,2.50352941 C22.2610267,1.52470588 21.484259,0.752941176 20.4990901,0.489411765 C18.6992624,0 11.4999517,0 11.4999517,0 C11.4999517,0 4.3006409,0 2.50081321,0.470588235 C1.53458993,0.734117647 0.738876631,1.52470588 0.473638866,2.50352941 C0,4.29176471 0,8 0,8 C0,8 0,11.7270588 0.473638866,13.4964706 C0.738876631,14.4752941 1.51564437,15.2470588 2.50081321,15.5105882 C4.31958646,16 11.4999517,16 11.4999517,16 C11.4999517,16 18.6992624,16 20.4990901,15.5294118 C21.484259,15.2658824 22.2610267,14.4941176 22.5262645,13.5152941 C22.9999033,11.7270588 22.9999033,8.01882353 22.9999033,8.01882353 C22.9999033,8.01882353 23.0188489,4.29176471 22.5262645,2.50352941 Z" id="path7" fill="#FF595A"></path>
                    <polygon id="polygon9" fill="#FFFFFF" points="15 8.5 9 5 9 12"></polygon>
                </g>
            </g>
        </g>
    </g>
</svg>