<?xml version="1.0" encoding="UTF-8"?>
<svg width="35px" height="24px" viewBox="0 0 35 24" version="1.1" xmlns="http://www.w3.org/2000/svg" xmlns:xlink="http://www.w3.org/1999/xlink">
    <!-- Generator: Sketch 52.6 (67491) - http://www.bohemiancoding.com/sketch -->
    <title>youtube</title>
    <desc>Created with Sketch.</desc>
    <g id="Page-1" stroke="none" stroke-width="1" fill="none" fill-rule="evenodd">
        <g id="iPhone-XS" transform="translate(-57.000000, -359.000000)" fill="#FFFFFF">
            <g id="Group-5" transform="translate(38.000000, 335.000000)">
                <g id="Group-3">
                    <g id="youtube" transform="translate(19.000000, 24.000000)">
                        <path d="M34.2790981,3.75529412 C35.0286831,6.43764706 34.9998529,12.0282353 34.9998529,12.0282353 C34.9998529,12.0282353 34.9998529,17.5905882 34.2790981,20.2729412 C33.8754754,21.7411765 32.6934376,22.8988235 31.1942676,23.2941176 C28.4553994,24 17.4999265,24 17.4999265,24 C17.4999265,24 6.57328374,24 3.80558532,23.2658824 C2.30641535,22.8705882 1.12437748,21.7129412 0.720754796,20.2447059 C0,17.5905882 0,12 0,12 C0,12 0,6.43764706 0.720754796,3.75529412 C1.12437748,2.28705882 2.33524554,1.10117647 3.80558532,0.705882353 C6.54445355,0 17.4999265,0 17.4999265,0 C17.4999265,0 28.4553994,0 31.1942676,0.734117647 C32.6934376,1.12941176 33.8754754,2.28705882 34.2790981,3.75529412 Z M23,12 L14,7 L14,17 L23,12 Z" id="Combined-Shape"></path>
                    </g>
                </g>
            </g>
        </g>
    </g>
</svg>